# This file uses centimeters as units for non-parametric coordinates.

mtllib mountain2.mtl
g default
v -2.842341 0.000000 17.657799
v -3.509022 0.000000 16.991154
v -2.842342 2.499721 16.991154
v -2.175681 0.000000 16.991154
v -1.509022 0.000000 16.991154
v -4.175682 0.000000 16.324484
v -3.509020 2.499720 16.324484
v -2.842341 2.499720 16.324484
v -2.175680 2.499720 16.324484
v -1.509022 2.499721 16.324484
v -0.842341 0.000000 16.324484
v -0.175681 0.000000 16.324484
v -5.509025 1.108500 15.657808
v -4.842341 0.000000 15.657808
v -4.175682 0.000000 15.657808
v -3.509022 2.499721 15.657808
v -2.842341 2.499720 15.657808
v -2.175680 2.499720 15.657808
v -1.509021 2.499720 15.657808
v -0.842340 2.499720 15.657808
v -0.175680 2.499720 15.657808
v 0.490980 0.000000 15.657808
v -4.842340 1.108500 14.991147
v -4.175680 0.000000 14.991147
v -3.509020 2.499720 14.991147
v -2.842342 2.499721 14.991148
v -2.175681 5.839464 14.991148
v -1.509022 2.499721 14.991148
v -0.842341 2.499721 14.991148
v -0.175681 2.499721 14.991148
v 0.490979 2.499721 14.991148
v 1.157660 0.000000 14.991148
v -4.842341 1.108500 14.324484
v -4.175682 2.499721 14.324484
v -3.509022 2.499721 14.324484
v -2.842341 5.839463 14.324483
v -2.175680 5.839463 14.324483
v -1.509021 5.839463 14.324483
v -0.842340 2.499720 14.324483
v -0.175680 2.499720 14.324483
v 0.490980 2.499720 14.324483
v 1.157661 0.000000 14.324483
v -4.842340 2.117262 13.657807
v -4.175680 2.499720 13.657807
v -3.509020 2.499720 13.657807
v -2.842341 6.353823 13.657807
v -2.175680 6.353823 13.657807
v -1.509022 5.839464 13.657808
v -0.842341 5.839464 13.657808
v -0.175681 2.499721 13.657808
v 0.490979 2.499721 13.657808
v 1.157660 0.000000 13.657808
v -4.842341 3.012842 12.991146
v -4.175682 3.012842 12.991146
v -4.004322 4.459061 12.991146
v -2.842342 6.353824 12.991146
v -2.175681 6.353824 12.991146
v -1.509021 6.353823 12.991146
v -0.842340 5.839463 12.991146
v -0.175680 2.499720 12.991146
v 0.490980 2.499720 12.991146
v 1.157661 0.000000 12.991146
v -4.842340 3.012842 12.324483
v -4.175680 3.012842 12.324483
v -4.004320 4.972160 12.324483
v -2.842341 6.353823 12.324483
v -2.175680 6.353823 12.324483
v -1.509021 5.839463 12.324483
v -0.842340 5.839463 12.324483
v -0.175681 2.499721 12.324484
v 0.490979 0.000000 12.324484
v -4.842341 3.012842 11.657808
v -4.175682 3.012842 11.657808
v -4.004322 4.457800 11.657808
v -2.842342 5.839464 11.657808
v -2.175681 5.839464 11.657808
v -1.509022 5.839464 11.657808
v -0.842341 2.499721 11.657808
v -0.175681 2.499721 11.657808
v 0.490980 0.000000 11.657807
v -4.842340 3.487220 10.991146
v -4.175680 3.012842 10.991146
v -3.509020 3.012842 10.991146
v -2.842341 3.012842 10.991146
v -2.175680 3.012842 10.991146
v -1.509021 2.499720 10.991146
v -0.842340 2.499720 10.991146
v -0.175680 0.000000 10.991146
v -5.509023 0.858020 10.324483
v -4.842340 0.000000 10.324483
v -4.175680 3.012842 10.324483
v -3.509022 3.012842 10.324484
v -2.842342 3.012842 10.324484
v -2.175681 3.012842 10.324484
v -1.509022 2.499721 10.324484
v -0.842341 2.499721 10.324484
v -0.175681 0.000000 10.324484
v -4.175682 0.000000 9.657808
v -3.509022 0.000000 9.657808
v -2.842342 0.000000 9.657808
v -2.175681 2.499721 9.657808
v -1.509021 2.499720 9.657807
v -0.842340 0.000000 9.657807
v -2.842341 0.000000 8.991146
v -2.670982 1.935240 8.991146
v -2.004321 1.935240 8.991146
v -0.842340 0.000000 8.991146
v -2.842341 0.000000 8.324483
v -2.670982 1.935240 8.324483
v -2.004321 1.935240 8.324483
v -0.842340 0.000000 8.324483
v -2.175680 0.000000 7.657803
v -1.509021 0.000000 7.657803
v -4.842341 1.612881 13.991146
vt 0.845483 0.061729
vt 0.864408 0.027958
vt 0.864408 0.061729
vt 0.845483 0.095500
vt 0.883331 0.061729
vt 0.883331 0.095500
vt 0.788711 0.129272
vt 0.807635 0.129272
vt 0.826559 0.095500
vt 0.243718 0.801985
vt 0.022380 0.801985
vt 0.243718 0.027187
vt 0.465047 0.801985
vt 0.902255 0.061729
vt 0.902255 0.095500
vt 0.921180 0.095500
vt 0.921180 0.129272
vt 0.826559 0.129272
vt 0.845483 0.129272
vt 0.148437 0.173502
vt 0.148469 0.106300
vt 0.203715 0.106335
vt 0.203682 0.173537
vt 0.258959 0.106370
vt 0.258927 0.173572
vt 0.314204 0.106405
vt 0.314171 0.173608
vt 0.369417 0.173643
vt 0.940104 0.095500
vt 0.940104 0.129272
vt 0.959027 0.129272
vt 0.959027 0.163043
vt 0.807635 0.163043
vt 0.826559 0.163043
vt 0.845483 0.163043
vt 0.148404 0.240703
vt 0.203650 0.240738
vt 0.883331 0.163043
vt 0.864408 0.129272
vt 0.883331 0.129272
vt 0.902255 0.129272
vt 0.864408 0.163043
vt 0.883331 0.196815
vt 0.902255 0.163043
vt 0.314138 0.240809
vt 0.369385 0.240844
vt 0.424661 0.173678
vt 0.424629 0.240879
vt 0.479873 0.240914
vt 0.977952 0.163043
vt 0.826559 0.196815
vt 0.807635 0.196815
vt 0.093127 0.307869
vt 0.148372 0.307904
vt 0.864408 0.196815
vt 0.845483 0.196815
vt 0.845483 0.230587
vt 0.902255 0.196815
vt 0.921180 0.163043
vt 0.921180 0.196815
vt 0.902255 0.230587
vt 0.369352 0.308045
vt 0.424596 0.308080
vt 0.479840 0.308115
vt 0.959027 0.196815
vt 0.977952 0.196815
vt 0.807635 0.213701
vt 0.807635 0.230587
vt 0.826559 0.230587
vt 0.093095 0.375072
vt 0.148339 0.375107
vt 0.864408 0.230587
vt 0.240007 0.372015
vt 0.240391 0.305230
vt 0.295635 0.305265
vt 0.295251 0.372050
vt 0.350879 0.305300
vt 0.350847 0.372503
vt 0.350463 0.439286
vt 0.921180 0.230587
vt 0.940104 0.196815
vt 0.940104 0.230587
vt 0.424564 0.375283
vt 0.479808 0.375318
vt 0.959027 0.230587
vt 0.977952 0.230587
vt 0.248593 0.793864
vt 0.047806 0.792631
vt 0.247902 0.906376
vt 0.092711 0.441856
vt 0.037467 0.441821
vt 0.831423 0.264358
vt 0.826559 0.264358
vt 0.144979 0.440692
vt 0.239974 0.439216
vt 0.144596 0.507476
vt 0.295219 0.439251
vt 0.295186 0.506452
vt 0.406093 0.372538
vt 0.406060 0.439739
vt 0.921180 0.264358
vt 0.940104 0.264358
vt 0.424531 0.442483
vt 0.479775 0.442519
vt 0.959027 0.264358
vt 0.977952 0.264358
vt 0.037435 0.509022
vt 0.092679 0.509057
vt 0.826559 0.298129
vt 0.831423 0.298129
vt 0.239942 0.506417
vt 0.350782 0.506904
vt 0.295505 0.574072
vt 0.406028 0.506940
vt 0.921180 0.298129
vt 0.940104 0.298129
vt 0.940104 0.331901
vt 0.424498 0.509684
vt 0.959027 0.298129
vt 0.037402 0.576224
vt 0.092646 0.576259
vt 0.092614 0.643460
vt 0.831423 0.331901
vt 0.826559 0.331901
vt 0.240261 0.574036
vt 0.144915 0.575096
vt 0.350749 0.574107
vt 0.921180 0.331901
vt 0.902255 0.298129
vt 0.902255 0.331901
vt 0.921180 0.365673
vt 0.959027 0.331901
vt 0.807635 0.365673
vt 0.788711 0.399444
vt 0.037045 0.643040
vt 0.845483 0.365673
vt 0.147858 0.643496
vt 0.092581 0.710662
vt 0.864408 0.331901
vt 0.864408 0.365673
vt 0.883331 0.331901
vt 0.883331 0.365673
vt 0.902255 0.365673
vt 0.940104 0.365673
vt 0.807635 0.399444
vt 0.826559 0.365673
vt 0.826559 0.399444
vt 0.147825 0.710697
vt 0.203104 0.643531
vt 0.203071 0.710732
vt 0.258348 0.643566
vt 0.258316 0.710767
vt 0.313943 0.644017
vt 0.313910 0.711218
vt 0.369189 0.644053
vt 0.369156 0.711254
vt 0.921180 0.399444
vt 0.940104 0.399444
vt 0.826559 0.433216
vt 0.845483 0.399444
vt 0.845483 0.433216
vt 0.864408 0.399444
vt 0.864408 0.433216
vt 0.258634 0.778386
vt 0.883331 0.433216
vt 0.313878 0.778421
vt 0.921180 0.433216
vt 0.902255 0.433216
vt 0.869272 0.466987
vt 0.864408 0.466987
vt 0.864408 0.500759
vt 0.273187 0.846054
vt 0.217942 0.846019
vt 0.888196 0.466987
vt 0.921180 0.466987
vt 0.869272 0.500759
vt 0.217910 0.913220
vt 0.273154 0.913255
vt 0.888196 0.500759
vt 0.921180 0.500759
vt 0.883331 0.534531
vt 0.902255 0.534531
vn -0.694849 0.185317 0.694869
vn -0.694849 0.185317 0.694869
vn -0.694849 0.185317 0.694869
vn -0.694849 0.185317 0.694869
vn 0.694859 0.185315 0.694859
vn 0.694859 0.185315 0.694859
vn 0.694859 0.185315 0.694859
vn 0.694859 0.185315 0.694859
vn -0.694859 0.185315 0.694859
vn -0.694859 0.185315 0.694859
vn -0.694859 0.185315 0.694859
vn 0.000000 1.000000 0.000000
vn 0.000000 1.000000 0.000000
vn 0.000000 1.000000 0.000000
vn 0.000000 1.000000 0.000000
vn 0.000000 0.257687 0.966228
vn 0.000000 0.257687 0.966228
vn 0.000000 0.257687 0.966228
vn 0.000000 0.257687 0.966228
vn 0.694853 0.185319 0.694864
vn 0.694853 0.185319 0.694864
vn 0.694853 0.185319 0.694864
vn 0.694853 0.185319 0.694864
vn -0.966228 0.257687 0.000000
vn -0.966228 0.257687 0.000000
vn -0.966228 0.257687 0.000000
vn -0.966228 0.257687 0.000000
vn 0.000000 1.000000 0.000000
vn 0.000000 1.000000 0.000000
vn 0.000000 1.000000 0.000000
vn 0.000000 1.000000 0.000000
vn 0.000000 1.000000 0.000000
vn 0.000000 1.000000 0.000000
vn 0.000000 1.000000 0.000000
vn 0.000000 1.000000 0.000000
vn 0.000000 1.000000 0.000000
vn 0.000000 1.000000 0.000000
vn 0.000000 1.000000 0.000000
vn 0.000000 1.000000 0.000000
vn 0.000000 1.000000 0.000000
vn 0.000000 1.000000 0.000000
vn 0.000000 1.000000 0.000000
vn 0.000000 0.257694 0.966227
vn 0.000000 0.257694 0.966227
vn 0.000000 0.257694 0.966227
vn 0.000000 0.257694 0.966227
vn 0.694864 0.185316 0.694854
vn 0.694864 0.185316 0.694854
vn 0.694864 0.185316 0.694854
vn 0.694864 0.185316 0.694854
vn 0.000000 1.000000 0.000000
vn 0.000000 1.000000 0.000000
vn 0.000000 1.000000 0.000000
vn 0.650706 0.391345 0.650716
vn 0.650706 0.391345 0.650716
vn 0.650706 0.391345 0.650716
vn 0.650706 0.391345 0.650716
vn -0.966228 0.257687 0.000000
vn -0.966228 0.257687 0.000000
vn -0.966228 0.257687 0.000000
vn -0.966228 0.257687 0.000000
vn 0.000000 1.000000 0.000000
vn 0.000000 1.000000 0.000000
vn 0.000000 1.000000 0.000000
vn 0.000000 1.000000 0.000000
vn 0.000000 0.195752 0.980653
vn 0.000000 0.195752 0.980653
vn 0.000000 0.195752 0.980653
vn 0.000000 0.195753 0.980653
vn -0.980653 0.195752 0.000000
vn -0.980653 0.195752 0.000000
vn -0.980653 0.195752 0.000000
vn -0.980653 0.195752 0.000000
vn 0.980653 0.195752 0.000000
vn 0.980653 0.195752 0.000000
vn 0.980653 0.195752 0.000000
vn 0.980653 0.195752 0.000000
vn 0.000000 1.000000 0.000000
vn 0.000000 1.000000 0.000000
vn 0.000000 1.000000 0.000000
vn 0.000000 1.000000 0.000000
vn 0.000000 1.000000 0.000000
vn 0.000000 1.000000 0.000000
vn 0.000000 1.000000 0.000000
vn 0.000000 1.000000 0.000000
vn 0.000000 1.000000 0.000000
vn 0.000000 1.000000 0.000000
vn 0.000000 1.000000 0.000000
vn 0.694849 0.185317 0.694869
vn 0.694849 0.185317 0.694869
vn 0.694849 0.185317 0.694869
vn -0.601018 0.205953 0.772244
vn -0.601018 0.205953 0.772244
vn -0.601018 0.205953 0.772244
vn -0.601018 0.205953 0.772244
vn 0.856960 0.515382 0.000000
vn 0.856960 0.515382 0.000000
vn 0.856960 0.515382 0.000000
vn 0.000000 1.000000 0.000000
vn 0.000000 1.000000 0.000000
vn 0.000000 1.000000 0.000000
vn 0.000000 0.195753 0.980653
vn 0.000000 0.195753 0.980653
vn 0.000000 0.195753 0.980653
vn 0.000000 0.195753 0.980653
vn -0.980652 0.195758 0.000000
vn -0.980652 0.195758 0.000000
vn -0.980652 0.195758 0.000000
vn -0.980652 0.195758 0.000000
vn 0.000000 0.195753 0.980653
vn 0.000000 0.195753 0.980653
vn 0.000000 0.195753 0.980653
vn 0.000000 0.195753 0.980653
vn 0.980652 0.195758 0.000000
vn 0.980652 0.195758 0.000000
vn 0.980652 0.195758 0.000000
vn 0.980652 0.195758 0.000000
vn 0.000000 1.000000 0.000000
vn 0.000000 1.000000 0.000000
vn 0.000000 1.000000 0.000000
vn 0.000000 1.000000 0.000000
vn 0.000000 1.000000 0.000000
vn 0.000000 1.000000 0.000000
vn 0.000000 1.000000 0.000000
vn 0.000000 1.000000 0.000000
vn 0.966227 0.257694 0.000000
vn 0.966227 0.257694 0.000000
vn 0.966227 0.257694 0.000000
vn 0.966227 0.257694 0.000000
vn -0.901807 0.432138 0.000000
vn -0.901807 0.432138 0.000000
vn -0.901808 0.432138 0.000000
vn -0.301584 0.525688 0.795424
vn -0.301584 0.525688 0.795424
vn -0.301585 0.525688 0.795424
vn -0.301584 0.525688 0.795424
vn 0.000000 1.000000 0.000000
vn 0.000000 1.000000 0.000000
vn 0.000000 1.000000 0.000000
vn 0.000000 1.000000 0.000000
vn -0.976955 0.168993 0.130382
vn -0.976955 0.168993 0.130382
vn -0.976955 0.168993 0.130382
vn 0.000000 0.791746 0.610851
vn 0.000000 0.791746 0.610851
vn 0.000000 0.791746 0.610851
vn 0.000000 0.791746 0.610851
vn 0.000000 1.000000 0.000000
vn 0.000000 1.000000 0.000000
vn 0.000000 1.000000 0.000000
vn 0.521298 0.675652 0.521290
vn 0.521298 0.675652 0.521290
vn 0.521298 0.675652 0.521290
vn 0.521298 0.675652 0.521290
vn 0.000000 0.195758 0.980652
vn 0.000000 0.195758 0.980652
vn 0.000000 0.195758 0.980652
vn 0.000000 0.195758 0.980652
vn 0.980653 0.195753 0.000000
vn 0.980653 0.195753 0.000000
vn 0.980653 0.195753 0.000000
vn 0.000000 1.000000 0.000000
vn 0.000000 1.000000 0.000000
vn 0.000000 1.000000 0.000000
vn 0.000000 1.000000 0.000000
vn 0.966227 0.257694 0.000000
vn 0.966227 0.257694 0.000000
vn 0.966227 0.257694 0.000000
vn 0.966227 0.257694 0.000000
vn -0.324075 0.564890 0.758864
vn -0.324075 0.564890 0.758864
vn -0.324075 0.564890 0.758864
vn 0.000000 0.792449 0.609938
vn 0.000000 0.792449 0.609938
vn 0.000000 0.792449 0.609938
vn 0.000000 0.792449 0.609938
vn -0.634563 0.100332 0.766331
vn -0.634563 0.100332 0.766331
vn -0.634563 0.100332 0.766331
vn -0.634563 0.100332 0.766331
vn -0.835721 0.512514 0.197230
vn -0.835721 0.512514 0.197230
vn -0.835721 0.512514 0.197230
vn -0.835721 0.512514 0.197230
vn 0.000000 1.000000 0.000000
vn 0.000000 1.000000 0.000000
vn 0.000000 1.000000 0.000000
vn 0.000000 1.000000 0.000000
vn 0.000000 1.000000 0.000000
vn 0.000000 1.000000 0.000000
vn 0.000000 1.000000 0.000000
vn 0.000000 1.000000 0.000000
vn 0.000000 1.000000 0.000000
vn 0.000000 1.000000 0.000000
vn 0.000000 1.000000 0.000000
vn 0.521284 0.675655 0.521299
vn 0.521284 0.675655 0.521299
vn 0.521284 0.675655 0.521299
vn 0.980653 0.195752 0.000000
vn 0.980653 0.195752 0.000000
vn 0.980653 0.195752 0.000000
vn 0.980653 0.195752 0.000000
vn 0.000000 1.000000 0.000000
vn 0.000000 1.000000 0.000000
vn 0.000000 1.000000 0.000000
vn 0.000000 1.000000 0.000000
vn 0.966227 0.257694 0.000000
vn 0.966227 0.257694 0.000000
vn 0.966227 0.257694 0.000000
vn 0.966227 0.257694 0.000000
vn 0.000000 1.000000 0.000000
vn 0.000000 1.000000 0.000000
vn 0.000000 1.000000 0.000000
vn 0.000000 1.000000 0.000000
vn -0.994237 0.100056 0.038504
vn -0.994237 0.100056 0.038504
vn -0.994237 0.100056 0.038504
vn -0.994237 0.100056 0.038504
vn -0.765327 0.643642 0.000000
vn -0.765327 0.643642 0.000000
vn -0.765327 0.643642 0.000000
vn 0.000000 1.000000 0.000000
vn 0.000000 1.000000 0.000000
vn 0.000000 1.000000 0.000000
vn 0.000000 1.000000 0.000000
vn 0.521298 0.675652 -0.521290
vn 0.521298 0.675652 -0.521290
vn 0.521298 0.675652 -0.521290
vn 0.521298 0.675652 -0.521290
vn 0.521284 0.675655 -0.521299
vn 0.521284 0.675655 -0.521299
vn 0.521284 0.675655 -0.521299
vn 0.000000 1.000000 0.000000
vn 0.000000 1.000000 0.000000
vn 0.000000 1.000000 0.000000
vn 0.980653 0.195753 0.000000
vn 0.980653 0.195753 0.000000
vn 0.980653 0.195753 0.000000
vn 0.980653 0.195753 0.000000
vn 0.980653 0.195753 0.000000
vn 0.980653 0.195752 0.000000
vn 0.980653 0.195753 0.000000
vn 0.000000 1.000000 0.000000
vn 0.000000 1.000000 0.000000
vn 0.000000 1.000000 0.000000
vn 0.694854 0.185316 -0.694864
vn 0.694854 0.185316 -0.694864
vn 0.694854 0.185316 -0.694864
vn 0.694854 0.185316 -0.694864
vn 0.000000 1.000000 0.000000
vn 0.000000 1.000000 0.000000
vn 0.000000 1.000000 0.000000
vn 0.000000 1.000000 0.000000
vn 0.000000 1.000000 0.000000
vn 0.000000 1.000000 0.000000
vn 0.000000 1.000000 0.000000
vn -0.994229 0.100092 -0.038612
vn -0.994229 0.100092 -0.038612
vn -0.994229 0.100092 -0.038612
vn -0.994229 0.100092 -0.038612
vn -0.685463 0.576476 -0.444765
vn -0.685463 0.576476 -0.444765
vn -0.685463 0.576476 -0.444765
vn -0.685463 0.576476 -0.444765
vn 0.000000 0.791746 -0.610851
vn 0.000000 0.791746 -0.610851
vn 0.000000 0.791746 -0.610851
vn 0.000000 0.791746 -0.610851
vn 0.000000 1.000000 0.000000
vn 0.000000 1.000000 0.000000
vn 0.000000 1.000000 0.000000
vn 0.000000 0.195758 -0.980652
vn 0.000000 0.195758 -0.980652
vn 0.000000 0.195758 -0.980652
vn 0.000000 0.195758 -0.980652
vn 0.980652 0.195758 0.000000
vn 0.980652 0.195758 0.000000
vn 0.980652 0.195758 0.000000
vn 0.980652 0.195758 0.000000
vn 0.966228 0.257687 0.000000
vn 0.966228 0.257687 0.000000
vn 0.966228 0.257687 0.000000
vn 0.966228 0.257687 0.000000
vn 0.501573 0.704875 0.501573
vn 0.501573 0.704875 0.501573
vn 0.501573 0.704875 0.501573
vn -0.704634 0.083564 -0.704634
vn -0.704634 0.083564 -0.704634
vn -0.704634 0.083564 -0.704634
vn 0.000000 1.000000 0.000000
vn 0.000000 1.000000 0.000000
vn 0.000000 1.000000 0.000000
vn 0.000000 1.000000 0.000000
vn -0.204042 0.270055 -0.940977
vn -0.204042 0.270055 -0.940977
vn -0.204042 0.270055 -0.940977
vn -0.204042 0.270055 -0.940977
vn 0.000000 0.229552 -0.973296
vn 0.000000 0.229552 -0.973296
vn 0.000000 0.229552 -0.973296
vn 0.000000 0.229552 -0.973296
vn 0.000000 0.229553 -0.973296
vn 0.000000 0.229553 -0.973296
vn 0.000000 0.229553 -0.973296
vn 0.075120 0.195200 -0.977882
vn 0.075120 0.195200 -0.977882
vn 0.075120 0.195200 -0.977882
vn 0.075120 0.195200 -0.977882
vn 0.000000 1.000000 0.000000
vn 0.000000 1.000000 0.000000
vn 0.000000 1.000000 0.000000
vn 0.694859 0.185315 -0.694859
vn 0.694859 0.185315 -0.694859
vn 0.694859 0.185315 -0.694859
vn 0.694859 0.185315 -0.694859
vn 0.184422 0.184551 -0.965365
vn 0.184422 0.184551 -0.965365
vn 0.184422 0.184551 -0.965365
vn 0.184422 0.184551 -0.965365
vn -0.976383 0.216047 0.000000
vn -0.976383 0.216047 0.000000
vn -0.976383 0.216047 0.000000
vn 0.000000 1.000000 0.000000
vn 0.000000 1.000000 0.000000
vn 0.000000 1.000000 0.000000
vn 0.000000 1.000000 0.000000
vn 0.000000 1.000000 0.000000
vn 0.000000 1.000000 0.000000
vn 0.000000 1.000000 0.000000
vn 0.000000 1.000000 0.000000
vn 0.000000 1.000000 0.000000
vn 0.000000 1.000000 0.000000
vn 0.000000 1.000000 0.000000
vn 0.609938 0.792449 0.000000
vn 0.609938 0.792449 0.000000
vn 0.609938 0.792449 0.000000
vn 0.609938 0.792449 0.000000
vn 0.000000 1.000000 0.000000
vn 0.000000 1.000000 0.000000
vn 0.000000 1.000000 0.000000
vn 0.000000 1.000000 0.000000
vn 0.966228 0.257687 0.000000
vn 0.966228 0.257687 0.000000
vn 0.966228 0.257687 0.000000
vn 0.966228 0.257687 0.000000
vn -0.698618 0.154585 -0.698596
vn -0.698618 0.154585 -0.698596
vn -0.698618 0.154585 -0.698596
vn 0.000000 0.216054 -0.976381
vn 0.000000 0.216054 -0.976381
vn 0.000000 0.216054 -0.976381
vn 0.000000 0.216054 -0.976381
vn 0.000000 0.216053 -0.976382
vn 0.000000 0.216053 -0.976382
vn 0.000000 0.216053 -0.976382
vn 0.000000 0.216053 -0.976382
vn 0.000000 0.792458 -0.609926
vn 0.000000 0.792458 -0.609926
vn 0.000000 0.792458 -0.609926
vn -0.629477 0.167877 -0.758667
vn -0.629477 0.167877 -0.758667
vn -0.629477 0.167877 -0.758667
vn 0.520725 0.676540 -0.520710
vn 0.520725 0.676540 -0.520710
vn 0.520725 0.676540 -0.520710
vn 0.000000 1.000000 0.000000
vn 0.000000 1.000000 0.000000
vn 0.000000 1.000000 0.000000
vn 0.000000 1.000000 0.000000
vn 0.694864 0.185319 -0.694853
vn 0.694864 0.185319 -0.694853
vn 0.694864 0.185319 -0.694853
vn 0.694864 0.185319 -0.694853
vn -0.864333 0.230513 0.446982
vn -0.864333 0.230513 0.446982
vn -0.864333 0.230513 0.446982
vn -0.996103 0.088202 0.000000
vn -0.996103 0.088202 0.000000
vn -0.996103 0.088202 0.000000
vn -0.996103 0.088202 0.000000
vn 0.000000 0.763170 -0.646198
vn 0.000000 0.763170 -0.646198
vn 0.000000 0.763170 -0.646198
vn 0.000000 0.763170 -0.646198
vn 0.705404 0.188133 -0.683382
vn 0.705404 0.188133 -0.683382
vn 0.705404 0.188133 -0.683382
vn 0.857330 0.514767 0.000000
vn 0.857330 0.514767 0.000000
vn 0.857330 0.514767 0.000000
vn -0.996103 0.088202 0.000000
vn -0.996103 0.088202 0.000000
vn -0.996103 0.088202 0.000000
vn 0.000000 1.000000 0.000000
vn 0.000000 1.000000 0.000000
vn 0.000000 1.000000 0.000000
vn 0.000000 1.000000 0.000000
vn 0.857330 0.514768 0.000000
vn 0.857330 0.514768 0.000000
vn 0.857330 0.514768 0.000000
vn 0.857330 0.514768 0.000000
vn -0.705735 0.062491 -0.705715
vn -0.705735 0.062491 -0.705715
vn -0.705735 0.062491 -0.705715
vn 0.000000 0.325709 -0.945470
vn 0.000000 0.325709 -0.945470
vn 0.000000 0.325709 -0.945470
vn 0.000000 0.325709 -0.945470
vn 0.650872 0.390805 -0.650874
vn 0.650872 0.390805 -0.650874
vn 0.650872 0.390805 -0.650874
s off
g mountain1:pPlane2
usemtl initialShadingGroup
f 2/1/1 1/2/2 3/3/3 7/4/4
f 3/3/5 1/2/6 4/5/7 9/6/8
f 6/9/9 2/1/10 7/4/11
f 8/10/12 7/11/13 3/12/14 9/13/15
f 9/6/16 4/5/17 5/14/18 10/15/19
f 10/15/20 5/14/21 11/16/22 20/17/23
f 15/18/24 6/9/25 7/4/26 16/19/27
f 16/20/28 7/21/29 8/22/30 17/23/31
f 17/23/32 8/22/33 9/24/34 18/25/35
f 9/24/36 10/26/37 18/25/38
f 19/27/39 18/25/40 10/26/41 20/28/42
f 20/17/43 11/16/44 12/29/45 21/30/46
f 21/30/47 12/29/48 22/31/49 31/32/50
f 11/16/51 5/14/52 12/29/53
f 23/33/54 13/7/55 14/8/56 24/34/57
f 24/34/58 15/18/59 16/19/60 25/35/61
f 25/36/62 16/20/63 17/23/64 26/37/65
f 27/38/66 17/39/67 18/40/68 19/41/69
f 26/42/70 17/39/71 27/38/72 37/43/73
f 27/38/74 19/41/75 28/44/76 37/43/77
f 28/45/78 19/27/79 20/28/80 29/46/81
f 20/28/82 21/47/83 29/46/84
f 30/48/85 29/46/86 21/47/87 31/49/88
f 22/31/89 32/50/90 31/32/91
f 34/51/92 33/52/93 24/34/94 25/35/95
f 23/33/96 24/34/97 33/52/98
f 34/53/99 25/36/100 35/54/101
f 36/55/102 25/35/103 26/42/104 37/43/105
f 35/56/106 25/35/107 36/55/108 45/57/109
f 38/58/110 37/43/111 28/44/112 29/59/113
f 38/58/114 29/59/115 39/60/116 48/61/117
f 39/62/118 29/46/119 30/48/120 40/63/121
f 40/63/122 30/48/123 31/49/124 41/64/125
f 41/65/126 31/32/127 32/50/128 42/66/129
f 34/51/130 44/69/131 33/52/132
f 114/67/133 33/52/134 44/69/135 43/68/136
f 44/70/137 34/53/138 35/54/139 45/71/140
f 45/57/141 36/55/142 46/72/143
f 46/73/144 36/74/145 37/75/146 47/76/147
f 38/77/148 48/78/149 37/75/150
f 47/76/151 37/75/152 48/78/153 58/79/154
f 49/80/155 48/61/156 39/60/157 40/81/158
f 40/81/159 50/82/160 49/80/161
f 50/83/162 40/63/163 41/64/164 51/84/165
f 51/85/166 41/65/167 42/66/168 52/86/169
f 43/87/170 44/89/171 53/88/172
f 54/90/173 53/91/174 44/70/175 45/71/176
f 55/92/177 54/93/178 45/57/179 46/72/180
f 55/94/181 46/73/182 56/95/183 65/96/184
f 56/95/185 46/73/186 47/76/187 57/97/188
f 57/97/189 47/76/190 58/79/191 67/98/192
f 49/99/193 59/100/194 48/78/195
f 48/78/196 59/100/197 58/79/198
f 59/101/199 49/80/200 50/82/201 60/102/202
f 60/103/203 50/83/204 51/84/205 61/104/206
f 61/105/207 51/85/208 52/86/209 62/106/210
f 63/107/211 53/91/212 54/90/213 64/108/214
f 64/109/215 54/93/216 55/92/217 65/110/218
f 65/96/219 56/95/220 66/111/221
f 66/111/222 56/95/223 57/97/224 67/98/225
f 67/98/226 58/79/227 68/112/228 76/113/229
f 58/79/230 59/100/231 68/112/232
f 68/112/233 59/100/234 69/114/235
f 59/101/236 60/102/237 69/115/238
f 69/115/239 60/102/240 70/116/241 79/117/242
f 60/103/243 61/104/244 70/118/245
f 71/119/246 70/116/247 61/105/248 62/106/249
f 63/107/250 64/108/251 72/120/252
f 72/120/253 64/108/254 73/121/255 82/122/256
f 64/109/257 65/110/258 74/123/259 73/124/260
f 65/96/261 66/111/262 75/125/263 74/126/264
f 75/125/265 66/111/266 67/98/267 76/113/268
f 76/113/269 68/112/270 77/127/271
f 78/128/272 68/129/273 69/115/274 79/117/275
f 77/130/276 68/129/277 78/128/278 87/131/279
f 79/117/280 70/116/281 71/119/282 80/132/283
f 72/120/284 82/122/285 81/135/286
f 74/123/287 83/136/288 73/124/289
f 82/122/290 73/121/291 83/137/292 91/138/293
f 74/123/294 75/139/295 84/140/296 83/136/297
f 84/140/298 75/139/299 76/141/300 85/142/301
f 76/141/302 77/130/303 85/142/304
f 86/143/305 85/142/306 77/130/307 87/131/308
f 78/128/309 79/117/310 87/131/311
f 88/144/312 87/131/313 79/117/314 80/132/315
f 90/145/316 89/134/317 81/133/318 82/146/319
f 82/146/320 91/147/321 90/145/322
f 91/138/323 83/137/324 92/148/325
f 92/148/326 83/137/327 84/149/328 93/150/329
f 93/150/330 84/149/331 85/151/332 94/152/333
f 94/152/334 85/151/335 86/153/336 95/154/337
f 95/154/338 86/153/339 87/155/340 96/156/341
f 96/157/342 87/131/343 88/144/344 97/158/345
f 91/147/346 98/159/347 90/145/348
f 98/159/349 91/147/350 92/160/351 99/161/352
f 99/161/353 92/160/354 93/162/355 100/163/356
f 94/152/357 101/164/358 93/150/359
f 93/162/360 101/165/361 100/163/362
f 94/152/363 95/154/364 101/164/365
f 102/166/366 101/164/367 95/154/368 96/156/369
f 103/167/370 102/168/371 96/157/372 97/158/373
f 101/165/374 105/169/375 100/163/376
f 104/170/377 100/163/378 105/169/379 108/171/380
f 101/164/381 102/166/382 106/172/383 105/173/384
f 102/168/385 103/167/386 106/174/387
f 106/174/388 103/167/389 107/175/390
f 108/171/391 105/169/392 109/176/393
f 109/177/394 105/173/395 106/172/396 110/178/397
f 110/179/398 106/174/399 107/175/400 111/180/401
f 109/176/402 112/181/403 108/171/404
f 112/181/405 109/176/406 110/179/407 113/182/408
f 110/179/409 111/180/410 113/182/411
