# This file uses centimeters as units for non-parametric coordinates.

mtllib bird1.mtl
g default
v 0.136452 -0.320992 -1.537613
v 0.000000 -0.320992 -1.537613
v -0.136452 -0.320992 -1.537613
v 0.136452 0.000000 -1.537613
v -0.136452 0.000000 -1.537613
v 0.136452 0.320992 -1.537613
v 0.000000 0.320992 -1.537613
v -0.136452 0.320992 -1.537613
v 0.500000 0.320992 -0.334835
v 0.000000 0.320992 -0.334835
v -0.500000 0.320992 -0.334835
v 0.500000 0.320992 0.576392
v 0.000000 0.320992 0.576392
v -0.500000 0.320992 0.576392
v 0.500000 0.000000 0.576392
v -0.000000 -0.063597 1.749521
v -0.500000 0.000000 0.576392
v 0.500000 -0.320992 0.576392
v 0.000000 -0.610695 0.500366
v -0.500000 -0.320992 0.576392
v 0.500000 -0.320992 -0.334835
v 0.000000 -0.610695 -0.019546
v -0.500000 -0.320992 -0.334835
v -0.500000 0.000000 -0.334835
v 0.500000 0.000000 -0.334835
v 0.250000 0.000000 1.299679
v -0.250000 0.000000 1.299679
v -0.000000 0.160496 1.299679
v -0.000000 -0.160496 1.299679
v 0.250000 0.160496 1.299679
v -0.250000 -0.160496 1.299679
v -0.250000 0.160496 1.299679
v 0.250000 -0.160496 1.299679
v 0.765669 0.320992 -2.559489
v 0.000000 0.320992 -2.559489
v 0.765669 0.000000 -2.559489
v 0.765669 -0.320992 -2.559489
v 0.000000 -0.320992 -2.559489
v -0.765669 -0.320992 -2.559489
v -0.765669 0.000000 -2.559489
v -0.765669 0.320992 -2.559489
v -1.736854 0.000000 0.576392
v -1.736854 0.000000 -0.334835
v -1.736854 0.320992 0.576392
v -1.736854 0.320992 -0.334835
v 1.736854 0.000000 0.576392
v 1.736854 0.000000 -0.334835
v 1.736854 0.320992 -0.334835
v 1.736854 0.320992 0.576392
v -2.685035 0.160496 -1.192301
v 2.685035 0.160496 -1.192301
v -0.125000 -0.063597 1.383833
v -0.000000 -0.143845 1.383833
v -0.125000 -0.143845 1.383833
v 0.125000 -0.143845 1.383833
v 0.125000 -0.063597 1.383833
v -0.000000 0.016651 1.383833
v 0.125000 0.016651 1.383833
v -0.125000 0.016651 1.383833
vt 0.500000 0.250000
vt 0.375000 0.250000
vt 0.375000 0.125000
vt 0.375000 0.000000
vt 0.500000 0.000000
vt 0.625000 0.000000
vt 0.625000 0.125000
vt 0.625000 0.250000
vt 0.375000 0.250000
vt 0.500000 0.250000
vt 0.500000 0.375000
vt 0.375000 0.375000
vt 0.625000 0.250000
vt 0.625000 0.375000
vt 0.500000 0.500000
vt 0.375000 0.500000
vt 0.625000 0.500000
vt 0.468750 0.625000
vt 0.468750 0.593750
vt 0.500000 0.625000
vt 0.500000 0.593750
vt 0.531250 0.593750
vt 0.468750 0.656250
vt 0.531250 0.656250
vt 0.500000 0.656250
vt 0.375000 0.750000
vt 0.500000 0.750000
vt 0.500000 0.875000
vt 0.375000 0.875000
vt 0.625000 0.750000
vt 0.625000 0.875000
vt 0.500000 1.000000
vt 0.375000 1.000000
vt 0.625000 1.000000
vt 0.750000 0.000000
vt 0.875000 0.000000
vt 0.875000 0.125000
vt 0.750000 0.125000
vt 0.625000 0.000000
vt 0.625000 0.125000
vt 0.750000 0.250000
vt 0.125000 0.000000
vt 0.250000 0.000000
vt 0.250000 0.125000
vt 0.125000 0.125000
vt 0.375000 0.000000
vt 0.375000 0.125000
vt 0.250000 0.250000
vt 0.531250 0.625000
vt 0.562500 0.625000
vt 0.562500 0.562500
vt 0.625000 0.625000
vt 0.562500 0.687500
vt 0.500000 0.687500
vt 0.437500 0.687500
vt 0.375000 0.625000
vt 0.437500 0.625000
vt 0.437500 0.562500
vt 0.500000 0.562500
vt 0.500000 0.000000
vt 0.875000 0.125000
vt 0.750000 0.125000
vt 0.875000 0.250000
vt 0.875000 0.250000
vt 0.750000 0.250000
vt 0.250000 0.125000
vt 0.125000 0.125000
vt 0.250000 0.250000
vt 0.125000 0.250000
vt 0.125000 0.250000
vt 0.812500 0.187500
vt 0.187500 0.187500
vn 0.000000 0.000000 -1.000000
vn 0.000000 0.000000 -1.000000
vn 0.000000 0.000000 -1.000000
vn 0.000000 0.000000 -1.000000
vn 0.000000 0.000000 -1.000000
vn 0.000000 0.000000 -1.000000
vn 0.000000 0.000000 -1.000000
vn 0.000000 0.000000 -1.000000
vn 0.000000 1.000000 0.000000
vn 0.000000 1.000000 0.000000
vn 0.000000 1.000000 0.000000
vn 0.000000 1.000000 0.000000
vn 0.000000 1.000000 0.000000
vn 0.000000 1.000000 0.000000
vn 0.000000 1.000000 0.000000
vn 0.000000 1.000000 0.000000
vn 0.000000 1.000000 0.000000
vn 0.000000 1.000000 0.000000
vn 0.000000 1.000000 0.000000
vn 0.000000 1.000000 0.000000
vn 0.000000 1.000000 0.000000
vn 0.000000 1.000000 0.000000
vn 0.000000 1.000000 0.000000
vn 0.000000 1.000000 0.000000
vn 0.777495 0.000000 0.628889
vn 0.339609 0.468805 0.815406
vn -0.000000 -0.000001 1.000000
vn -0.000000 0.770265 0.637723
vn -0.339609 0.468805 0.815406
vn -0.000000 -0.000001 1.000000
vn 0.398715 -0.758167 0.515954
vn 0.777495 0.000000 0.628889
vn -0.000000 -0.000001 1.000000
vn -0.000000 -0.000001 1.000000
vn -0.398715 -0.758167 0.515955
vn -0.000000 -0.978530 0.206107
vn 0.000000 -1.000000 0.000000
vn 0.000000 -0.998230 -0.059469
vn 0.501334 -0.865254 0.000000
vn 0.404001 -0.909744 -0.095653
vn 0.000000 -1.000000 0.000000
vn -0.501334 -0.865254 -0.000000
vn 0.000000 -0.998230 -0.059469
vn -0.404001 -0.909744 -0.095653
vn 0.000000 -0.998230 -0.059469
vn 0.000000 -0.987912 -0.155013
vn 0.404001 -0.909744 -0.095653
vn 0.349391 -0.925651 -0.145244
vn 0.000000 -0.998230 -0.059469
vn -0.404001 -0.909744 -0.095653
vn 0.000000 -0.987912 -0.155013
vn -0.349391 -0.925651 -0.145244
vn -0.985533 0.000000 -0.169484
vn -1.000000 0.000000 -0.000000
vn -0.976804 0.000000 -0.214133
vn -1.000000 0.000000 -0.000000
vn -0.957229 0.000000 -0.289330
vn -0.985533 0.000000 -0.169484
vn -0.957229 0.000000 -0.289330
vn -0.976804 0.000000 -0.214133
vn -0.957229 0.000000 -0.289330
vn -0.976804 0.000000 -0.214133
vn -0.957229 0.000000 -0.289330
vn -0.957229 0.000000 -0.289330
vn 1.000000 0.000000 0.000000
vn 0.985533 0.000000 -0.169484
vn 1.000000 0.000000 0.000000
vn 0.976804 0.000000 -0.214133
vn 0.985533 0.000000 -0.169484
vn 0.957229 0.000000 -0.289330
vn 0.976804 0.000000 -0.214133
vn 0.957229 0.000000 -0.289330
vn 0.976804 0.000000 -0.214133
vn 0.957229 0.000000 -0.289330
vn 0.957229 0.000000 -0.289330
vn 0.957229 0.000000 -0.289330
vn 0.339609 0.468805 0.815406
vn -0.000000 0.770265 0.637723
vn -0.000000 -0.000001 1.000000
vn -0.000000 -0.000001 1.000000
vn -0.777495 0.000000 0.628889
vn -0.398715 -0.758167 0.515955
vn -0.000000 -0.000001 1.000000
vn -0.339609 0.468805 0.815406
vn -0.777495 0.000000 0.628889
vn -0.000000 -0.978530 0.206107
vn 0.398715 -0.758167 0.515954
vn -0.000000 -0.000001 1.000000
vn -0.925803 0.000000 0.378007
vn -0.492101 0.778080 0.390420
vn -0.945135 0.000000 0.326680
vn -0.506096 0.788332 0.349858
vn -0.925803 0.000000 0.378007
vn -0.945135 0.000000 0.326680
vn -0.614869 -0.647898 0.449627
vn -0.561482 -0.704953 0.433335
vn -0.614869 -0.647898 0.449627
vn -0.561482 -0.704953 0.433335
vn -0.000000 -0.914115 0.405454
vn -0.000000 -0.909556 0.415581
vn 0.614869 -0.647898 0.449627
vn -0.000000 -0.914115 0.405454
vn 0.561482 -0.704953 0.433335
vn -0.000000 -0.909556 0.415581
vn 0.925803 0.000000 0.378007
vn 0.614869 -0.647898 0.449627
vn 0.945135 0.000000 0.326680
vn 0.561482 -0.704953 0.433335
vn 0.506096 0.788332 0.349858
vn 0.492101 0.778080 0.390420
vn 0.945135 0.000000 0.326680
vn 0.925803 0.000000 0.378007
vn 0.506096 0.788332 0.349858
vn -0.000000 0.976254 0.216628
vn 0.492101 0.778080 0.390420
vn -0.000000 0.956854 0.290568
vn -0.506096 0.788332 0.349858
vn -0.492101 0.778080 0.390420
vn -0.000000 0.976254 0.216628
vn -0.000000 0.956854 0.290568
vn 0.000000 1.000000 0.000000
vn 0.000000 1.000000 0.000000
vn 0.000000 1.000000 0.000000
vn 0.000000 1.000000 0.000000
vn 0.851521 0.000000 0.524321
vn 0.851521 0.000000 0.524321
vn 0.851521 0.000000 0.524321
vn 0.851521 0.000000 0.524321
vn 0.851521 0.000000 0.524321
vn 0.851521 0.000000 0.524321
vn 0.851521 0.000000 0.524321
vn 0.851521 0.000000 0.524321
vn 0.000000 -1.000000 0.000000
vn 0.000000 -1.000000 0.000000
vn 0.000000 -1.000000 0.000000
vn 0.000000 -1.000000 0.000000
vn 0.000000 -1.000000 0.000000
vn 0.000000 -1.000000 0.000000
vn 0.000000 -1.000000 0.000000
vn 0.000000 -1.000000 0.000000
vn -0.851521 0.000000 0.524321
vn -0.851521 0.000000 0.524321
vn -0.851521 0.000000 0.524321
vn -0.851521 0.000000 0.524321
vn -0.851521 0.000000 0.524321
vn -0.851521 0.000000 0.524321
vn -0.851521 0.000000 0.524321
vn -0.851521 0.000000 0.524321
vn 0.000000 1.000000 0.000000
vn 0.000000 1.000000 0.000000
vn 0.000000 1.000000 0.000000
vn 0.000000 1.000000 0.000000
vn 0.000000 -1.000000 0.000000
vn 0.000000 -1.000000 0.000000
vn -0.060556 -0.998165 -0.000000
vn -0.018607 -0.999827 -0.000000
vn -0.000000 0.000000 1.000000
vn -0.000000 0.000000 1.000000
vn -0.437647 0.000000 0.899147
vn -0.437647 0.000000 0.899147
vn 0.000000 1.000000 0.000000
vn 0.000000 1.000000 0.000000
vn -0.018607 0.999827 -0.000000
vn -0.060556 0.998165 -0.000000
vn 0.000000 0.000000 -1.000000
vn 0.000000 0.000000 -1.000000
vn 0.221856 0.000000 -0.975079
vn 0.221856 0.000000 -0.975079
vn 0.000000 -1.000000 0.000000
vn 0.000000 -1.000000 0.000000
vn 0.018607 -0.999827 0.000000
vn 0.060556 -0.998165 0.000000
vn 0.000000 0.000000 -1.000000
vn 0.000000 0.000000 -1.000000
vn -0.221856 0.000000 -0.975079
vn -0.221856 0.000000 -0.975079
vn 0.000000 1.000000 0.000000
vn 0.000000 1.000000 0.000000
vn 0.060556 0.998165 0.000000
vn 0.018607 0.999827 0.000000
vn -0.000000 0.000000 1.000000
vn -0.000000 0.000000 1.000000
vn 0.437647 0.000000 0.899147
vn 0.437647 0.000000 0.899147
vn -0.060556 -0.998165 -0.000000
vn -0.018607 -0.999827 -0.000000
vn -0.166893 -0.985975 -0.000000
vn -0.437647 0.000000 0.899147
vn -0.437647 0.000000 0.899147
vn -0.881342 0.000000 0.472479
vn -0.018607 0.999827 -0.000000
vn -0.060556 0.998165 -0.000000
vn -0.166893 0.985975 -0.000000
vn 0.221856 0.000000 -0.975079
vn 0.221856 0.000000 -0.975079
vn 0.670736 0.000000 -0.741696
vn 0.018607 -0.999827 0.000000
vn 0.060556 -0.998165 0.000000
vn 0.166893 -0.985975 0.000000
vn -0.221856 0.000000 -0.975079
vn -0.221856 0.000000 -0.975079
vn -0.670736 0.000000 -0.741696
vn 0.060556 0.998165 0.000000
vn 0.018607 0.999827 0.000000
vn 0.166893 0.985975 0.000000
vn 0.437647 0.000000 0.899147
vn 0.437647 0.000000 0.899147
vn 0.881342 0.000000 0.472479
vn -0.777495 0.000000 0.628889
vn -0.339609 0.468805 0.815406
vn -0.925803 0.000000 0.378007
vn -0.492101 0.778080 0.390420
vn -0.398715 -0.758167 0.515955
vn -0.777495 0.000000 0.628889
vn -0.614869 -0.647898 0.449627
vn -0.925803 0.000000 0.378007
vn -0.000000 -0.978530 0.206107
vn -0.398715 -0.758167 0.515955
vn -0.000000 -0.914115 0.405454
vn -0.614869 -0.647898 0.449627
vn 0.614869 -0.647898 0.449627
vn 0.398715 -0.758167 0.515954
vn -0.000000 -0.914115 0.405454
vn -0.000000 -0.978530 0.206107
vn 0.925803 0.000000 0.378007
vn 0.777495 0.000000 0.628889
vn 0.614869 -0.647898 0.449627
vn 0.398715 -0.758167 0.515954
vn 0.492101 0.778080 0.390420
vn 0.339609 0.468805 0.815406
vn 0.925803 0.000000 0.378007
vn 0.777495 0.000000 0.628889
vn 0.492101 0.778080 0.390420
vn -0.000000 0.956854 0.290568
vn 0.339609 0.468805 0.815406
vn -0.000000 0.770265 0.637723
vn -0.492101 0.778080 0.390420
vn -0.339609 0.468805 0.815406
vn -0.000000 0.956854 0.290568
vn -0.000000 0.770265 0.637723
s 1
g bird1:pCube1
usemtl initialShadingGroup
f 34/2/1 36/3/2 35/1/3
f 37/4/4 38/5/5 36/3/2
f 36/3/2 38/5/5 35/1/3
f 35/1/3 38/5/5 41/8/6
f 41/8/6 38/5/5 40/7/7
f 38/5/5 39/6/8 40/7/7
s 2
f 7/10/9 10/11/10 6/9/11
f 6/9/11 10/11/10 9/12/12
s 3
f 7/10/13 8/13/14 10/11/15
f 10/11/15 8/13/14 11/14/16
s 4
f 9/12/17 10/11/18 12/16/19
f 12/16/19 10/11/18 13/15/20
s 5
f 10/11/21 11/14/22 13/15/23
f 13/15/23 11/14/22 14/17/24
s off
f 56/18/25 58/19/26 16/20/27
f 57/21/28 59/22/29 16/20/30
f 55/23/31 56/18/32 16/20/33
f 16/20/34 54/24/35 53/25/36
s 6
f 19/27/37 22/28/38 18/26/39
f 18/26/39 22/28/38 21/29/40
s 7
f 19/27/41 20/30/42 22/28/43
f 22/28/43 20/30/42 23/31/44
s 8
f 22/28/45 2/32/46 21/29/47
f 21/29/47 2/32/46 1/33/48
s 9
f 22/28/49 23/31/50 2/32/51
f 2/32/51 23/31/50 3/34/52
s 10
f 23/35/53 20/36/54 24/38/55
f 24/38/55 20/36/54 17/37/56
s 11
f 3/39/57 23/35/58 5/40/59
f 5/40/59 23/35/58 24/38/60
s 12
f 5/40/61 24/38/62 8/13/63
f 8/13/63 24/38/62 11/41/64
s 13
f 18/42/65 21/43/66 15/45/67
f 15/45/67 21/43/66 25/44/68
s 14
f 21/43/69 1/46/70 25/44/71
f 25/44/71 1/46/70 4/47/72
s 15
f 25/44/73 4/47/74 9/48/75
f 9/48/75 4/47/74 6/9/76
s off
f 58/19/77 57/21/78 16/20/79
f 16/20/80 52/49/81 54/24/82
f 16/20/83 59/22/84 52/49/85
f 53/25/86 55/23/87 16/20/88
s 16
f 27/50/89 32/51/90 17/52/91
f 17/52/91 32/51/90 14/17/92
s 17
f 27/50/93 17/52/94 31/53/95
f 31/53/95 17/52/94 20/30/96
s 18
f 31/53/97 20/30/98 29/54/99
f 29/54/99 20/30/98 19/27/100
s 19
f 33/55/101 29/54/102 18/26/103
f 18/26/103 29/54/102 19/27/104
s 20
f 26/57/105 33/55/106 15/56/107
f 15/56/107 33/55/106 18/26/108
s 21
f 12/16/109 30/58/110 15/56/111
f 15/56/111 30/58/110 26/57/112
s 22
f 12/16/113 13/15/114 30/58/115
f 30/58/115 13/15/114 28/59/116
s 23
f 14/17/117 32/51/118 13/15/119
f 13/15/119 32/51/118 28/59/120
s 24
f 7/10/121 6/9/122 35/1/123
f 35/1/123 6/9/122 34/2/124
s 25
f 6/9/125 4/47/126 34/2/127
f 34/2/127 4/47/126 36/3/128
s 26
f 4/47/129 1/46/130 36/3/131
f 36/3/131 1/46/130 37/4/132
s 27
f 2/60/133 38/5/134 1/46/135
f 1/46/135 38/5/134 37/4/136
s 28
f 2/60/137 3/39/138 38/5/139
f 38/5/139 3/39/138 39/6/140
s 29
f 3/39/141 5/40/142 39/6/143
f 39/6/143 5/40/142 40/7/144
s 30
f 5/40/145 8/13/146 40/7/147
f 40/7/147 8/13/146 41/8/148
s 31
f 7/10/149 35/1/150 8/13/151
f 8/13/151 35/1/150 41/8/152
s 32
f 24/38/153 17/37/154 43/62/155
f 43/62/155 17/37/154 42/61/156
s 33
f 17/37/157 14/63/158 42/61/159
f 42/61/159 14/63/158 44/64/160
s 34
f 14/63/161 11/41/162 44/64/163
f 44/64/163 11/41/162 45/65/164
s 35
f 11/41/165 24/38/166 45/65/167
f 45/65/167 24/38/166 43/62/168
s 36
f 15/45/169 25/44/170 46/67/171
f 46/67/171 25/44/170 47/66/172
s 37
f 25/44/173 9/48/174 47/66/175
f 47/66/175 9/48/174 48/68/176
s 38
f 9/48/177 12/69/178 48/68/179
f 48/68/179 12/69/178 49/70/180
s 39
f 12/69/181 15/45/182 49/70/183
f 49/70/183 15/45/182 46/67/184
s off
f 43/62/185 42/61/186 50/71/187
f 42/61/188 44/64/189 50/71/190
f 44/64/191 45/65/192 50/71/193
f 45/65/194 43/62/195 50/71/196
f 46/67/197 47/66/198 51/72/199
f 47/66/200 48/68/201 51/72/202
f 48/68/203 49/70/204 51/72/205
f 49/70/206 46/67/207 51/72/208
s 40
f 52/49/209 59/22/210 27/50/211
f 27/50/211 59/22/210 32/51/212
s 41
f 54/24/213 52/49/214 31/53/215
f 31/53/215 52/49/214 27/50/216
s 42
f 53/25/217 54/24/218 29/54/219
f 29/54/219 54/24/218 31/53/220
s 43
f 33/55/221 55/23/222 29/54/223
f 29/54/223 55/23/222 53/25/224
s 44
f 26/57/225 56/18/226 33/55/227
f 33/55/227 56/18/226 55/23/228
s 45
f 30/58/229 58/19/230 26/57/231
f 26/57/231 58/19/230 56/18/232
s 46
f 30/58/233 28/59/234 58/19/235
f 58/19/235 28/59/234 57/21/236
s 47
f 32/51/237 59/22/238 28/59/239
f 28/59/239 59/22/238 57/21/240
