# This file uses centimeters as units for non-parametric coordinates.

mtllib leaf1.mtl
g default
v 0.031940 0.065541 -0.005541
v 0.622620 0.407012 0.026403
v 0.029492 0.057012 -0.070037
v 0.616149 0.384474 -0.144041
v 0.735380 0.445932 0.379348
v 0.701913 0.329337 -0.502371
v 1.548177 0.526502 0.965573
v 1.467941 0.246971 -1.148277
v 2.639963 0.418423 1.324050
v 2.531015 0.038798 -1.546728
v 4.104350 0.005236 1.123426
v 4.010272 -0.322559 -1.355405
v 5.688441 -0.772468 0.663909
v 5.631777 -0.969902 -0.829110
v 6.790258 -1.584748 -0.031131
v 0.724840 0.421380 -0.066212
v 1.551297 0.622321 -0.124147
v 2.666810 0.671657 -0.173012
v 4.138644 0.284388 -0.177663
v 5.723379 -0.526499 -0.130580
v 0.204050 0.175461 -0.109852
v 0.446495 0.725127 -0.434834
v 0.155816 0.160719 -0.151019
v 0.319027 0.686170 -0.543625
v 0.767926 0.838262 -0.284225
v 0.108531 0.636728 -0.847011
v 1.565463 0.867819 -0.415776
v 0.062129 0.806435 -1.836871
v 2.425833 0.941759 -0.965087
v 0.356441 0.707371 -2.869328
v 3.114633 0.562896 -2.172773
v 1.316672 0.324261 -3.810208
v 3.797177 -0.006080 -3.747200
v 2.683774 -0.345751 -4.696816
v 3.928143 -1.498787 -5.004334
v 0.427260 0.770324 -0.564528
v 0.775995 1.277204 -1.154631
v 1.285924 1.466472 -1.938804
v 2.101302 1.040044 -3.001348
v 3.125185 0.159497 -4.209744
v 0.005373 -0.145111 -0.150630
v -0.036143 0.169855 0.023622
v 0.039507 -0.148548 -0.146649
v 0.054064 0.160770 0.034140
v -0.227550 0.212017 0.049053
v 0.239093 0.165018 0.103466
v -0.574048 0.458540 0.370956
v 0.544691 0.345863 0.501409
v -0.814351 0.698455 0.880466
v 0.704986 0.545436 1.057639
v -0.778487 0.909705 1.665924
v 0.533416 0.777577 1.818907
v -0.613928 0.718251 3.026629
v 0.176240 0.638667 3.118772
v -0.303033 -0.321831 4.148222
v 0.008215 0.205662 0.070129
v 0.002367 0.521889 0.393381
v -0.022627 0.847035 0.888563
v -0.090480 1.068735 1.661930
v -0.193907 0.853577 3.010081
v 0.044520 0.065541 -0.005459
v 0.482188 0.407012 0.392497
v 0.083372 0.057012 -0.056999
v 0.584861 0.384474 0.256293
v 0.346599 0.445932 0.737317
v 0.877735 0.329337 0.032729
v 0.606237 0.526502 1.705245
v 1.879590 0.246971 0.016053
v 1.226020 0.418423 2.672909
v 2.955349 0.038798 0.378862
v 2.490169 0.004349 3.457094
v 3.981080 -0.322559 1.461766
v 4.021472 -0.761355 4.084895
v 4.905433 -0.969902 2.894190
v 5.299232 -1.584748 4.244661
v 0.619938 0.421380 0.385292
v 1.297149 0.622321 0.862547
v 2.192684 0.671657 1.529461
v 3.321013 0.274179 2.452691
v 4.539583 -0.520949 3.479337
v 0.099562 0.059142 -0.011632
v -0.345245 0.503222 0.255699
v 0.137157 0.050750 0.040853
v -0.245891 0.481045 0.394400
v -0.632323 0.559804 0.025080
v -0.118360 0.445082 0.742593
v -1.612932 0.784791 -0.009296
v -0.379498 0.509466 1.711323
v -2.714556 0.871096 0.324112
v -1.040379 0.503144 2.657590
v -3.822382 0.741311 1.027719
v -2.377456 0.418781 3.044911
v -4.952662 -0.070604 2.379396
v -4.082371 -0.264867 3.594367
v -5.249932 -1.042789 3.657599
v -0.372689 0.536783 0.387432
v -0.976344 0.891849 0.873865
v -1.841042 1.141837 1.536430
v -3.065140 1.030908 2.083491
v -4.490456 0.183027 3.023579
v 0.035084 0.065541 0.030685
v -0.468660 0.407012 -0.279419
v 0.006440 0.057012 0.088524
v -0.544359 0.384474 -0.126570
v -0.399213 0.445932 -0.643373
v -0.790810 0.329337 0.147324
v -0.833461 0.526502 -1.546548
v -1.772281 0.246971 0.349082
v -1.621586 0.418423 -2.382826
v -2.896595 0.038798 0.191583
v -3.291352 0.138854 -2.531245
v -4.049620 -0.086916 -1.000196
v -4.401113 -0.396792 -2.774113
v -4.857823 -0.532775 -1.851949
v -5.296473 -0.956253 -2.715846
v -0.602698 0.421380 -0.246851
v -1.356521 0.622321 -0.590563
v -2.359991 0.671657 -1.080263
v -3.739988 0.331121 -1.755145
v -4.683536 -0.227380 -2.304803
v 0.022218 0.065541 0.022131
v -0.077917 0.407012 -0.560875
v -0.040121 0.057012 0.038852
v -0.242661 0.384474 -0.516685
v 0.241139 0.445932 -0.749259
v -0.611090 0.329337 -0.520664
v 0.632055 0.526502 -1.672016
v -1.411093 0.246971 -1.123978
v 0.738914 0.418423 -2.816168
v -2.035849 0.038798 -2.071907
v 0.217844 0.005236 -4.199340
v -2.178080 -0.322559 -3.556688
v -0.582248 -0.772468 -5.641683
v -2.025332 -0.969902 -5.254609
v -1.504787 -1.584748 -6.561469
v -0.190935 0.421380 -0.639955
v -0.431103 0.622321 -1.432865
v -0.726672 0.671657 -2.509618
v -1.058326 0.284388 -3.943606
v -1.364632 -0.526499 -5.499170
vt 0.025105 0.495848
vt 0.184148 0.489029
vt 0.184148 0.510971
vt 0.025105 0.504152
vt 0.196340 0.500000
vt 0.196340 0.443244
vt 0.196340 0.556756
vt 0.291889 0.500000
vt 0.291889 0.636069
vt 0.425784 0.500000
vt 0.425784 0.684792
vt 0.612496 0.500000
vt 0.612496 0.659562
vt 0.822281 0.500000
vt 0.822281 0.596106
vt 0.974895 0.500000
vt 0.291889 0.363931
vt 0.425784 0.315208
vt 0.612496 0.340438
vt 0.822281 0.403894
vt 0.025105 0.495848
vt 0.184148 0.489029
vt 0.184148 0.510971
vt 0.025105 0.504152
vt 0.196340 0.500000
vt 0.196340 0.443244
vt 0.196340 0.556756
vt 0.291889 0.500000
vt 0.291889 0.636069
vt 0.425784 0.500000
vt 0.425784 0.684792
vt 0.612496 0.500000
vt 0.612496 0.659562
vt 0.822281 0.500000
vt 0.822281 0.596106
vt 0.974895 0.500000
vt 0.291889 0.363931
vt 0.425784 0.315208
vt 0.612496 0.340438
vt 0.822281 0.403894
vt 0.025105 0.495848
vt 0.184148 0.489029
vt 0.184148 0.510971
vt 0.025105 0.504152
vt 0.196340 0.500000
vt 0.196340 0.443244
vt 0.196340 0.556756
vt 0.291889 0.500000
vt 0.291889 0.636069
vt 0.425784 0.500000
vt 0.425784 0.684792
vt 0.612496 0.500000
vt 0.612496 0.659562
vt 0.822281 0.500000
vt 0.822281 0.596106
vt 0.974895 0.500000
vt 0.291889 0.363931
vt 0.425784 0.315208
vt 0.612496 0.340438
vt 0.822281 0.403894
vt 0.025105 0.495848
vt 0.184148 0.489029
vt 0.184148 0.510971
vt 0.025105 0.504152
vt 0.196340 0.500000
vt 0.196340 0.443244
vt 0.196340 0.556756
vt 0.291889 0.500000
vt 0.291889 0.636069
vt 0.425784 0.500000
vt 0.425784 0.684792
vt 0.612496 0.500000
vt 0.612496 0.659562
vt 0.822281 0.500000
vt 0.822281 0.596106
vt 0.974895 0.500000
vt 0.291889 0.363931
vt 0.425784 0.315208
vt 0.612496 0.340438
vt 0.822281 0.403894
vt 0.025105 0.495848
vt 0.184148 0.489029
vt 0.184148 0.510971
vt 0.025105 0.504152
vt 0.196340 0.500000
vt 0.196340 0.443244
vt 0.196340 0.556756
vt 0.291889 0.500000
vt 0.291889 0.636069
vt 0.425784 0.500000
vt 0.425784 0.684792
vt 0.612496 0.500000
vt 0.612496 0.659562
vt 0.822281 0.500000
vt 0.822281 0.596106
vt 0.974895 0.500000
vt 0.291889 0.363931
vt 0.425784 0.315208
vt 0.612496 0.340438
vt 0.822281 0.403894
vt 0.025105 0.495848
vt 0.184148 0.489029
vt 0.184148 0.510971
vt 0.025105 0.504152
vt 0.196340 0.500000
vt 0.196340 0.443244
vt 0.196340 0.556756
vt 0.291889 0.500000
vt 0.291889 0.636069
vt 0.425784 0.500000
vt 0.425784 0.684792
vt 0.612496 0.500000
vt 0.612496 0.659562
vt 0.822281 0.500000
vt 0.822281 0.596106
vt 0.974895 0.500000
vt 0.291889 0.363931
vt 0.425784 0.315208
vt 0.612496 0.340438
vt 0.822281 0.403894
vt 0.025105 0.495848
vt 0.184148 0.489029
vt 0.184148 0.510971
vt 0.025105 0.504152
vt 0.196340 0.500000
vt 0.196340 0.443244
vt 0.196340 0.556756
vt 0.291889 0.500000
vt 0.291889 0.636069
vt 0.425784 0.500000
vt 0.425784 0.684792
vt 0.612496 0.500000
vt 0.612496 0.659562
vt 0.822281 0.500000
vt 0.822281 0.596106
vt 0.974895 0.500000
vt 0.291889 0.363931
vt 0.425784 0.315208
vt 0.612496 0.340438
vt 0.822281 0.403894
vn -0.494324 0.864018 -0.095486
vn -0.289771 0.955249 -0.059431
vn -0.297925 0.939726 -0.167798
vn -0.494324 0.864018 -0.095486
vn -0.236307 0.964418 -0.118562
vn -0.186010 0.981785 0.038705
vn -0.037717 0.990849 -0.129597
vn -0.198037 0.939873 -0.278243
vn -0.034597 0.924747 -0.379008
vn 0.165241 0.976907 -0.135455
vn 0.153977 0.891097 -0.426893
vn 0.327742 0.824509 -0.461270
vn 0.366618 0.920432 -0.135630
vn 0.475082 0.738069 -0.479115
vn 0.526349 0.840106 -0.131070
vn 0.704786 0.699329 -0.119227
vn -0.015372 0.991723 0.127475
vn 0.176566 0.969799 0.168268
vn 0.353056 0.912708 0.205707
vn 0.502161 0.832415 0.234350
vn -0.623124 0.583059 0.521305
vn -0.511311 0.751065 0.417688
vn -0.594208 0.723599 0.351171
vn -0.623124 0.583059 0.521305
vn -0.530121 0.775222 0.343516
vn -0.142992 0.885137 0.442816
vn -0.194104 0.967485 0.162163
vn -0.623905 0.753233 0.208288
vn -0.507616 0.852827 -0.122525
vn 0.023637 0.991056 -0.131335
vn -0.285064 0.860481 -0.422270
vn 0.171770 0.921131 -0.349302
vn -0.133690 0.799647 -0.585399
vn 0.287527 0.785338 -0.548246
vn 0.180132 0.686294 -0.704665
vn 0.437225 0.551946 -0.710064
vn 0.475234 0.784419 -0.398546
vn 0.135159 0.925458 0.353919
vn 0.345426 0.932459 0.105840
vn 0.451244 0.887680 -0.091673
vn 0.149605 0.493672 -0.856683
vn 0.097243 0.675238 -0.731162
vn 0.205689 0.661264 -0.721403
vn 0.149605 0.493672 -0.856683
vn 0.151650 0.712310 -0.685286
vn -0.009127 0.747772 -0.663893
vn 0.145829 0.836671 -0.527935
vn 0.307076 0.715927 -0.627019
vn 0.393114 0.789561 -0.471227
vn 0.133925 0.928388 -0.346642
vn 0.424051 0.858369 -0.288762
vn 0.425245 0.904926 0.016610
vn 0.095611 0.995202 -0.020780
vn 0.053467 0.918380 0.392071
vn 0.208050 0.849040 0.485639
vn -0.013573 0.696212 0.717708
vn -0.151709 0.888633 0.432800
vn -0.112176 0.840452 -0.530148
vn -0.169708 0.918169 -0.358000
vn -0.230427 0.972048 -0.045007
vn -0.322834 0.864018 -0.386331
vn -0.187060 0.955249 -0.229146
vn -0.124913 0.939726 -0.318296
vn -0.322834 0.864018 -0.386331
vn -0.108259 0.964418 -0.241201
vn -0.168635 0.981785 -0.087522
vn 0.052645 0.990849 -0.124284
vn 0.022293 0.939873 -0.340795
vn 0.212643 0.924747 -0.315637
vn 0.215422 0.976521 0.000594
vn 0.389553 0.892047 -0.229129
vn 0.543162 0.826675 -0.146917
vn 0.368426 0.921223 0.124945
vn 0.667302 0.741181 -0.073204
vn 0.490892 0.842739 0.220946
vn 0.627219 0.697378 0.346786
vn -0.092455 0.991723 0.089096
vn 0.034270 0.970055 0.240456
vn 0.149469 0.914782 0.375278
vn 0.248504 0.837984 0.485828
vn 0.580672 0.758968 -0.294598
vn 0.411483 0.883992 -0.221900
vn 0.477336 0.868148 -0.135899
vn 0.580672 0.758968 -0.294598
vn 0.404286 0.903047 -0.145116
vn 0.273927 0.928747 -0.249785
vn 0.248549 0.968301 -0.024846
vn 0.461458 0.887065 0.013134
vn 0.381582 0.904305 0.191383
vn 0.086395 0.988617 0.123178
vn 0.217075 0.907684 0.359149
vn 0.010226 0.845412 0.534016
vn -0.182404 0.949635 0.254799
vn -0.392608 0.820110 0.416267
vn -0.271246 0.754897 0.597123
vn -0.581727 0.627867 0.517085
vn -0.534530 0.817454 0.214587
vn 0.080011 0.971035 -0.225142
vn -0.084128 0.983804 -0.158280
vn -0.341612 0.939630 -0.019936
vn 0.388741 0.864018 0.319927
vn 0.226228 0.955249 0.190578
vn 0.181650 0.939726 0.289687
vn 0.388741 0.864018 0.319927
vn 0.151019 0.964418 0.217005
vn 0.181917 0.981785 0.054808
vn -0.028740 0.990849 0.131878
vn 0.041149 0.939873 0.339035
vn -0.150570 0.924747 0.349532
vn -0.176780 0.982823 0.052984
vn -0.292058 0.901517 0.319326
vn -0.442026 0.853291 0.276599
vn -0.334744 0.942059 -0.021699
vn -0.646195 0.738069 0.194129
vn -0.525056 0.840106 -0.136157
vn -0.676184 0.699329 -0.231762
vn 0.074373 0.991723 -0.104665
vn -0.041677 0.977434 -0.207091
vn -0.165370 0.935332 -0.312742
vn -0.329323 0.832415 -0.445680
vn 0.016767 0.864018 0.503182
vn 0.006458 0.955249 0.295732
vn -0.097387 0.939726 0.327767
vn 0.016767 0.864018 0.503182
vn -0.063076 0.964418 0.256747
vn 0.079078 0.981785 0.172756
vn -0.117973 0.990849 0.065577
vn -0.227270 0.939873 0.254924
vn -0.361839 0.924747 0.117967
vn -0.168793 0.976907 -0.131003
vn -0.450438 0.891097 -0.055247
vn -0.522575 0.824509 -0.217027
vn -0.213719 0.920432 -0.327304
vn -0.572720 0.738069 -0.356715
vn -0.244774 0.840106 -0.484054
vn -0.272886 0.699329 -0.660660
vn 0.127703 0.991723 -0.013344
vn 0.124817 0.969799 -0.209548
vn 0.122094 0.912708 -0.389945
vn 0.116882 0.832415 -0.541686
s 1
g pasted__pasted__pasted__pasted__pasted__group1_pasted__pPlane1
usemtl initialShadingGroup
f 1/1/1 2/2/2 4/3/3 3/4/4
f 16/5/5 2/2/2 5/6/6 17/8/7
f 16/5/5 17/8/7 6/7/8 4/3/3
f 6/7/8 17/8/7 8/9/9
f 8/9/9 17/8/7 18/10/10 10/11/11
f 12/13/12 10/11/11 18/10/10 19/12/13
f 14/15/14 12/13/12 19/12/13 20/14/15
f 14/15/14 20/14/15 15/16/16
f 17/8/7 5/6/6 7/17/17
f 18/10/10 17/8/7 7/17/17 9/18/18
f 11/19/19 19/12/13 18/10/10 9/18/18
f 13/20/20 20/14/15 19/12/13 11/19/19
f 15/16/16 20/14/15 13/20/20
f 4/3/3 2/2/2 16/5/5
s 2
f 21/21/21 22/22/22 24/23/23 23/24/24
f 36/25/25 22/22/22 25/26/26 37/28/27
f 36/25/25 37/28/27 26/27/28 24/23/23
f 26/27/28 37/28/27 28/29/29
f 28/29/29 37/28/27 38/30/30 30/31/31
f 30/31/31 38/30/30 39/32/32 32/33/33
f 32/33/33 39/32/32 40/34/34 34/35/35
f 35/36/36 34/35/35 40/34/34 33/40/37
f 37/28/27 25/26/26 27/37/38
f 38/30/30 37/28/27 27/37/38 29/38/39
f 31/39/40 39/32/32 38/30/30 29/38/39
f 40/34/34 39/32/32 31/39/40 33/40/37
f 24/23/23 22/22/22 36/25/25
s 3
f 41/41/41 42/42/42 44/43/43 43/44/44
f 56/45/45 42/42/42 45/46/46 57/48/47
f 56/45/45 57/48/47 46/47/48 44/43/43
f 46/47/48 57/48/47 48/49/49
f 48/49/49 57/48/47 58/50/50 50/51/51
f 52/53/52 50/51/51 58/50/50 59/52/53
f 52/53/52 59/52/53 60/54/54 54/55/55
f 55/56/56 54/55/55 60/54/54 53/60/57
f 57/48/47 45/46/46 47/57/58
f 58/50/50 57/48/47 47/57/58 49/58/59
f 51/59/60 59/52/53 58/50/50 49/58/59
f 60/54/54 59/52/53 51/59/60 53/60/57
f 44/43/43 42/42/42 56/45/45
s 4
f 61/61/61 62/62/62 64/63/63 63/64/64
f 76/65/65 62/62/62 65/66/66 77/68/67
f 76/65/65 77/68/67 66/67/68 64/63/63
f 66/67/68 77/68/67 68/69/69
f 68/69/69 77/68/67 78/70/70 70/71/71
f 72/73/72 70/71/71 78/70/70 79/72/73
f 74/75/74 72/73/72 79/72/73 80/74/75
f 74/75/74 80/74/75 75/76/76
f 77/68/67 65/66/66 67/77/77
f 78/70/70 77/68/67 67/77/77 69/78/78
f 71/79/79 79/72/73 78/70/70 69/78/78
f 73/80/80 80/74/75 79/72/73 71/79/79
f 75/76/76 80/74/75 73/80/80
f 64/63/63 62/62/62 76/65/65
s 5
f 81/81/81 82/82/82 84/83/83 83/84/84
f 96/85/85 82/82/82 85/86/86 97/88/87
f 96/85/85 97/88/87 86/87/88 84/83/83
f 86/87/88 97/88/87 88/89/89
f 88/89/89 97/88/87 98/90/90 90/91/91
f 92/93/92 90/91/91 98/90/90 99/92/93
f 92/93/92 99/92/93 100/94/94 94/95/95
f 95/96/96 94/95/95 100/94/94 93/100/97
f 97/88/87 85/86/86 87/97/98
f 98/90/90 97/88/87 87/97/98 89/98/99
f 99/92/93 98/90/90 89/98/99 91/99/100
f 100/94/94 99/92/93 91/99/100 93/100/97
f 84/83/83 82/82/82 96/85/85
s 6
f 101/101/101 102/102/102 104/103/103 103/104/104
f 116/105/105 102/102/102 105/106/106 117/108/107
f 116/105/105 117/108/107 106/107/108 104/103/103
f 106/107/108 117/108/107 108/109/109
f 108/109/109 117/108/107 118/110/110 110/111/111
f 112/113/112 110/111/111 118/110/110 119/112/113
f 114/115/114 112/113/112 119/112/113 120/114/115
f 114/115/114 120/114/115 115/116/116
f 117/108/107 105/106/106 107/117/117
f 118/110/110 117/108/107 107/117/117 109/118/118
f 111/119/119 119/112/113 118/110/110 109/118/118
f 113/120/120 120/114/115 119/112/113 111/119/119
f 115/116/116 120/114/115 113/120/120
f 104/103/103 102/102/102 116/105/105
s 7
f 121/121/121 122/122/122 124/123/123 123/124/124
f 136/125/125 122/122/122 125/126/126 137/128/127
f 136/125/125 137/128/127 126/127/128 124/123/123
f 126/127/128 137/128/127 128/129/129
f 128/129/129 137/128/127 138/130/130 130/131/131
f 132/133/132 130/131/131 138/130/130 139/132/133
f 134/135/134 132/133/132 139/132/133 140/134/135
f 134/135/134 140/134/135 135/136/136
f 137/128/127 125/126/126 127/137/137
f 138/130/130 137/128/127 127/137/137 129/138/138
f 131/139/139 139/132/133 138/130/130 129/138/138
f 133/140/140 140/134/135 139/132/133 131/139/139
f 135/136/136 140/134/135 133/140/140
f 124/123/123 122/122/122 136/125/125
